<svg
  width="30"
  height="30"
  viewBox="0 0 41 45"
  fill="none"
  xmlns="http://www.w3.org/2000/svg"
>
  <path
    d="M36.5326 22.1655L36.1372 22.5322L36.5326 22.8988C39.8728 25.9959 40.9835 30.2497 39.2042 33.3312C37.4249 36.4128 33.1859 37.5779 28.8337 36.2337L28.3185 36.0746L28.1987 36.6003C27.1866 41.0413 24.0581 44.1303 20.4998 44.1303C16.9414 44.1303 13.8129 41.0413 12.8008 36.6003L12.681 36.0746L12.1658 36.2337C7.81364 37.5779 3.57463 36.4128 1.79529 33.3312C0.0159816 30.2497 1.12674 25.9959 4.46688 22.8988L4.8623 22.5322L4.46688 22.1655C1.12674 19.0685 0.0159816 14.8147 1.79529 11.7332C3.57461 8.65159 7.81362 7.48678 12.1658 8.8307L12.681 8.98979L12.8008 8.46405C13.8129 4.0228 16.9414 0.934082 20.4998 0.934082C24.0581 0.934082 27.1866 4.02311 28.1987 8.46406L28.3185 8.98983L28.8337 8.83069C33.1859 7.48647 37.4249 8.65157 39.2042 11.7332C40.9835 14.8147 39.8728 19.0685 36.5326 22.1655Z"
    fill="#FF623B"
    stroke="#FF623B"
  />
  <path
    d="M28.5357 22.5325C28.5357 26.9707 24.9378 30.5685 20.4997 30.5685C16.0616 30.5685 12.4637 26.9707 12.4637 22.5325C12.4637 18.0944 16.0616 14.4966 20.4997 14.4966C24.9378 14.4966 28.5357 18.0944 28.5357 22.5325Z"
    fill="white"
    stroke="#FF623B"
  />
</svg>